<?xml version="1.0" standalone="no"?>
<!DOCTYPE svg PUBLIC "-//W3C//DTD SVG 20010904//EN"
 "http://www.w3.org/TR/2001/REC-SVG-20010904/DTD/svg10.dtd">
<svg version="1.0" xmlns="http://www.w3.org/2000/svg"
 width="215.000000pt" height="215.000000pt" viewBox="0 0 215.000000 215.000000"
 preserveAspectRatio="xMidYMid meet">
<metadata>
Created by potrace 1.11, written by Peter Selinger 2001-2013
</metadata>
<g transform="translate(0.000000,215.000000) scale(0.100000,-0.100000)"
fill="#000000" stroke="none">
<path d="M1641 1998 c-107 -33 -171 -83 -236 -184 -94 -147 -127 -192 -170
-233 -25 -24 -48 -41 -50 -39 -3 3 2 24 10 48 8 24 17 52 19 64 3 12 16 59 30
106 31 103 34 200 7 200 -10 0 -39 -53 -45 -81 -2 -13 -16 -45 -31 -71 -14
-26 -35 -71 -46 -100 -48 -129 -102 -251 -112 -249 -4 1 -40 -15 -80 -35 -195
-98 -325 -235 -357 -379 -13 -57 -16 -184 -5 -245 4 -25 20 -72 36 -104 l29
-60 -52 -60 c-107 -127 -215 -218 -274 -232 -37 -8 -214 -104 -214 -116 0 -5
-4 -7 -8 -4 -10 6 -82 -41 -82 -54 0 -5 8 -11 18 -14 9 -3 459 -5 999 -4 797
0 983 3 987 13 6 16 -29 49 -43 40 -6 -3 -11 -2 -11 3 0 5 -20 20 -44 33 -40
21 -43 24 -27 36 16 10 19 30 12 64 0 4 -11 9 -23 12 -22 6 -23 11 -23 99 -1
72 -6 108 -24 160 l-24 66 21 46 c12 24 30 85 41 133 40 184 83 309 158 463
99 203 114 248 116 340 1 62 -4 85 -25 132 -37 79 -107 151 -185 190 -83 41
-192 47 -292 16z m-904 -1479 c-3 -10 102 -87 150 -110 24 -11 82 -29 130 -39
49 -10 86 -19 83 -20 -18 -6 -623 -4 -627 3 -2 4 0 7 4 7 17 0 143 97 135 105
-4 5 -2 5 4 2 6 -3 28 9 49 28 34 29 77 44 72 24z m957 -12 c15 -22 25 -142
13 -153 -8 -9 -368 -11 -373 -2 -2 3 20 11 49 18 72 16 211 86 250 125 40 40
43 40 61 12z"/>
</g>
</svg>
